<svg xmlns="http://www.w3.org/2000/svg" width="25" height="25" fill="none"><path stroke="#fff" stroke-width="2" d="M3.125 11.458c0-3.928 0-5.892 1.22-7.112 1.222-1.22 3.185-1.221 7.113-1.221h2.084c3.928 0 5.892 0 7.112 1.22 1.22 1.222 1.221 3.185 1.221 7.113v2.084c0 3.928 0 5.892-1.22 7.112-1.222 1.22-3.185 1.221-7.113 1.221h-2.084c-3.928 0-5.892 0-7.112-1.22-1.22-1.222-1.221-3.185-1.221-7.113z"/><path fill="#fff" d="M17.188 9.375a1.563 1.563 0 1 0 0-3.125 1.563 1.563 0 0 0 0 3.125"/><path stroke="#fff" stroke-width="2" d="M12.5 15.625a3.125 3.125 0 1 0 0-6.25 3.125 3.125 0 0 0 0 6.25Z"/></svg>