<svg xmlns="http://www.w3.org/2000/svg" width="30" height="30" fill="none"><g clip-path="url(#a)"><path fill="url(#b)" d="M22.969 0H7.03A7.03 7.03 0 0 0 0 7.031V22.97A7.03 7.03 0 0 0 7.031 30H22.97A7.03 7.03 0 0 0 30 22.969V7.03A7.03 7.03 0 0 0 22.969 0"/><path fill="url(#c)" d="M22.969 0H7.03A7.03 7.03 0 0 0 0 7.031V22.97A7.03 7.03 0 0 0 7.031 30H22.97A7.03 7.03 0 0 0 30 22.969V7.03A7.03 7.03 0 0 0 22.969 0"/><path fill="#fff" d="M15.001 3.281c-3.182 0-3.582.014-4.832.071-1.248.057-2.1.255-2.844.544-.771.3-1.425.7-2.076 1.352a5.75 5.75 0 0 0-1.353 2.076c-.29.745-.488 1.597-.544 2.844-.056 1.25-.07 1.65-.07 4.832s.013 3.581.07 4.83.255 2.1.544 2.845c.3.771.7 1.425 1.352 2.076a5.7 5.7 0 0 0 2.075 1.353c.746.29 1.598.487 2.845.544 1.25.057 1.65.071 4.832.071s3.58-.014 4.83-.07c1.248-.058 2.1-.255 2.847-.545.77-.3 1.423-.7 2.074-1.353a5.75 5.75 0 0 0 1.352-2.076c.289-.745.486-1.597.545-2.844.056-1.25.07-1.648.07-4.83 0-3.184-.014-3.583-.07-4.833-.059-1.248-.256-2.099-.544-2.844a5.75 5.75 0 0 0-1.353-2.076 5.7 5.7 0 0 0-2.075-1.351c-.747-.29-1.6-.488-2.847-.545-1.25-.057-1.648-.07-4.832-.07zM13.95 5.393H15c3.13 0 3.5.011 4.736.067 1.142.053 1.762.244 2.175.404.547.212.937.466 1.347.877.41.41.664.8.877 1.347.16.413.352 1.033.404 2.176.056 1.235.068 1.606.068 4.733 0 3.128-.012 3.5-.069 4.734-.052 1.143-.243 1.763-.403 2.176a3.6 3.6 0 0 1-.877 1.346c-.41.41-.8.664-1.347.876-.412.162-1.033.352-2.175.404-1.236.056-1.607.069-4.736.069-3.13 0-3.5-.013-4.735-.069-1.143-.053-1.763-.243-2.176-.404a3.6 3.6 0 0 1-1.348-.876c-.41-.41-.664-.8-.877-1.347-.16-.413-.352-1.033-.404-2.176-.056-1.235-.067-1.606-.067-4.735s.011-3.499.067-4.734c.053-1.143.244-1.763.404-2.176a3.6 3.6 0 0 1 .877-1.348c.41-.41.8-.664 1.348-.877.413-.16 1.033-.351 2.176-.404 1.08-.049 1.5-.063 3.684-.066zm7.307 1.946a1.406 1.406 0 1 0 0 2.813 1.406 1.406 0 0 0 0-2.814M15 8.982a6.018 6.018 0 1 0 .001 12.037 6.018 6.018 0 0 0-.001-12.037m0 2.112a3.906 3.906 0 1 1 0 7.812 3.906 3.906 0 0 1 0-7.812"/></g><defs><radialGradient id="b" cx="0" cy="0" r="1" gradientTransform="matrix(0 -29.7322 27.6533 0 7.969 32.31)" gradientUnits="userSpaceOnUse"><stop stop-color="#FD5"/><stop offset=".1" stop-color="#FD5"/><stop offset=".5" stop-color="#FF543E"/><stop offset="1" stop-color="#C837AB"/></radialGradient><radialGradient id="c" cx="0" cy="0" r="1" gradientTransform="matrix(2.60854 13.032 -53.71814 10.75247 -5.025 2.161)" gradientUnits="userSpaceOnUse"><stop stop-color="#3771C8"/><stop offset=".128" stop-color="#3771C8"/><stop offset="1" stop-color="#60F" stop-opacity="0"/></radialGradient><clipPath id="a"><path fill="#fff" d="M0 0h30v30H0z"/></clipPath></defs></svg>