<svg xmlns="http://www.w3.org/2000/svg" width="875" height="147" fill="none"><mask id="a" fill="#fff"><path d="M0 132.89c6.849-7.67 13.697-15.339 20.546-12.743 6.848 2.597 13.696 15.46 20.545 18.204s13.697-4.632 20.545-12.743c6.85-8.111 13.697-16.956 20.546-12.742s13.697 21.488 20.545 29.126 13.697 5.642 20.546 0c6.848-5.642 13.696-14.93 20.545-16.384s13.697 4.925 20.546 3.641c6.848-1.284 13.696-10.231 20.545-9.102s13.697 12.334 20.546 9.102c6.848-3.231 13.696-20.9 20.545-21.845s13.697 14.834 20.545 21.845 13.697 5.254 20.546 0 13.697-14.004 20.545-12.742 13.697 12.534 20.546 12.742 13.697-10.651 20.545-12.742 13.697 4.582 20.546 9.101c6.848 4.52 13.696 6.884 20.545 3.641 6.849-3.242 13.697-12.092 20.546-16.383 6.848-4.292 13.696-4.027 20.545 3.641 6.849 7.666 13.697 22.734 20.546 25.485 6.848 2.75 13.696-6.816 20.545-16.384V0H0z"/></mask><path fill="#20120F" d="M0 132.89c6.849-7.67 13.697-15.339 20.546-12.743 6.848 2.597 13.696 15.46 20.545 18.204s13.697-4.632 20.545-12.743c6.85-8.111 13.697-16.956 20.546-12.742s13.697 21.488 20.545 29.126 13.697 5.642 20.546 0c6.848-5.642 13.696-14.93 20.545-16.384s13.697 4.925 20.546 3.641c6.848-1.284 13.696-10.231 20.545-9.102s13.697 12.334 20.546 9.102c6.848-3.231 13.696-20.9 20.545-21.845s13.697 14.834 20.545 21.845 13.697 5.254 20.546 0 13.697-14.004 20.545-12.742 13.697 12.534 20.546 12.742 13.697-10.651 20.545-12.742 13.697 4.582 20.546 9.101c6.848 4.52 13.696 6.884 20.545 3.641 6.849-3.242 13.697-12.092 20.546-16.383 6.848-4.292 13.696-4.027 20.545 3.641 6.849 7.666 13.697 22.734 20.546 25.485 6.848 2.75 13.696-6.816 20.545-16.384V0H0z"/><path fill="#20120F" d="m0 132.89.746.666L-1 135.512v-2.622zm20.546-12.743.354-.935zm20.545 18.204-.372.929zm61.636 3.641.745-.668zm20.546 0-.636-.772zm164.363-25.485-.181.983zm41.091 0 .292.956zm82.182 0-.746.666zM452 125.608h1v.321l-.187.261zM452 0v-1h1v1zM0 0h-1v-1h1zm-.746 132.224c3.404-3.812 6.9-7.733 10.421-10.357s7.318-4.136 11.225-2.655l-.709 1.87c-2.942-1.115-5.992-.092-9.32 2.389-3.327 2.478-6.68 6.227-10.125 10.085zM20.9 119.212c1.897.719 3.724 2.117 5.468 3.761 1.752 1.652 3.495 3.625 5.2 5.56 1.72 1.95 3.402 3.861 5.076 5.458 1.682 1.603 3.284 2.817 4.819 3.432l-.744 1.857c-1.89-.758-3.712-2.181-5.455-3.842-1.75-1.668-3.491-3.65-5.196-5.583-1.718-1.949-3.4-3.85-5.072-5.426-1.68-1.584-3.278-2.768-4.805-3.347zm20.563 18.211c2.95 1.182 5.998.253 9.309-2.179 3.314-2.434 6.667-6.215 10.1-10.281l1.528 1.29c-3.415 4.045-6.91 8.008-10.444 10.603-3.538 2.599-7.34 3.985-11.237 2.424zm19.41-12.46c3.386-4.011 6.892-8.355 10.417-11.133 1.773-1.397 3.625-2.462 5.548-2.87 1.959-.416 3.934-.136 5.868 1.054l-1.048 1.703c-1.49-.917-2.94-1.112-4.405-.801-1.502.319-3.073 1.183-4.725 2.484-3.323 2.619-6.666 6.753-10.128 10.853zm21.833-12.949c1.881 1.157 3.686 3.156 5.418 5.514 1.744 2.375 3.478 5.205 5.192 8.108 3.463 5.866 6.817 11.965 10.156 15.688l-1.489 1.335c-3.51-3.915-7.004-10.272-10.39-16.006-1.71-2.897-3.4-5.653-5.08-7.941-1.693-2.304-3.312-4.045-4.855-4.995zm20.766 29.31c3.273 3.651 6.414 4.872 9.455 4.651 3.115-.227 6.341-1.98 9.71-4.755l1.272 1.544c-3.481 2.867-7.103 4.933-10.836 5.206-3.808.277-7.515-1.323-11.09-5.311zm19.165-.104c3.401-2.802 6.711-6.427 10.225-9.72 3.416-3.202 7.022-6.079 10.748-6.87l.416 1.956c-3.122.663-6.365 3.157-9.797 6.373-3.335 3.126-6.873 6.965-10.32 9.805zm20.973-16.59c3.755-.797 7.458.564 10.824 1.796 3.491 1.276 6.641 2.422 9.745 1.84l.369 1.966c-3.745.702-7.443-.7-10.801-1.928-3.481-1.274-6.626-2.375-9.721-1.718zm20.569 3.636c1.546-.29 3.142-1.023 4.816-2.003 1.682-.983 3.344-2.153 5.091-3.305 1.719-1.132 3.5-2.232 5.308-2.971 1.816-.743 3.722-1.149 5.678-.827l-.326 1.974c-1.468-.243-2.986.046-4.595.704-1.616.661-3.259 1.666-4.964 2.79-1.677 1.105-3.439 2.342-5.182 3.362-1.75 1.024-3.579 1.89-5.457 2.242zm20.893-9.106c1.93.318 3.788 1.33 5.534 2.512 1.73 1.17 3.52 2.634 5.171 3.858 1.702 1.262 3.314 2.317 4.879 2.878 1.53.548 2.958.604 4.372-.063l.853 1.809c-2.01.948-4.007.815-5.9.136-1.86-.666-3.672-1.877-5.395-3.153-1.773-1.315-3.407-2.662-5.101-3.809-1.678-1.136-3.244-1.948-4.739-2.194zm19.956 9.185c1.493-.705 3.085-2.257 4.784-4.367 1.683-2.09 3.368-4.589 5.093-7.079 1.709-2.464 3.459-4.919 5.227-6.819 1.739-1.868 3.655-3.38 5.731-3.666l.274 1.981c-1.348.186-2.856 1.237-4.541 3.048-1.657 1.78-3.331 4.121-5.047 6.596-1.698 2.45-3.438 5.032-5.179 7.194-1.725 2.142-3.557 4.009-5.489 4.921zm20.835-21.931c2.133-.295 4.128.732 5.921 2.257 1.807 1.537 3.576 3.72 5.297 6.084 1.716 2.357 3.461 5.004 5.148 7.418 1.708 2.445 3.381 4.688 5.032 6.377l-1.431 1.398c-1.774-1.816-3.525-4.175-5.241-6.63-1.737-2.487-3.417-5.04-5.125-7.386-1.703-2.339-3.358-4.362-4.975-5.737-1.631-1.387-3.061-1.978-4.352-1.8zm21.398 22.136c3.264 3.342 6.417 4.498 9.493 4.3 3.135-.201 6.368-1.817 9.728-4.394l1.218 1.587c-3.489 2.676-7.104 4.565-10.818 4.803-3.772.242-7.468-1.229-11.052-4.898zm19.221-.094c1.677-1.286 3.36-2.792 5.077-4.335 1.705-1.533 3.444-3.105 5.187-4.473 3.436-2.696 7.178-4.842 11.072-4.125l-.363 1.967c-2.955-.544-6.061 1.053-9.474 3.731-1.68 1.319-3.366 2.841-5.085 4.387-1.708 1.536-3.448 3.094-5.196 4.435zm21.335-12.933c1.929.355 3.786 1.398 5.542 2.667 1.759 1.272 3.514 2.845 5.209 4.331 1.718 1.505 3.378 2.926 5.02 3.987 1.646 1.063 3.175 1.698 4.624 1.742l-.061 1.999c-1.975-.06-3.87-.912-5.648-2.061-1.782-1.151-3.546-2.667-5.253-4.163-1.729-1.516-3.399-3.011-5.063-4.214-1.668-1.206-3.236-2.046-4.732-2.321zm20.395 12.727c1.443.043 2.962-.495 4.594-1.469 1.631-.973 3.286-2.325 4.996-3.799 1.686-1.452 3.438-3.035 5.181-4.367 1.744-1.333 3.569-2.49 5.452-3.065l.584 1.913c-1.541.471-3.14 1.456-4.821 2.741s-3.353 2.796-5.091 4.294c-1.714 1.476-3.483 2.931-5.276 4.001-1.792 1.069-3.698 1.81-5.68 1.75zm20.223-12.7c3.83-1.17 7.568.148 11.064 2.161 1.759 1.013 3.506 2.231 5.22 3.462 1.728 1.24 3.414 2.485 5.104 3.6l-1.101 1.67c-1.734-1.144-3.472-2.428-5.169-3.645-1.709-1.227-3.387-2.394-5.052-3.353-3.352-1.931-6.463-2.904-9.482-1.982zm21.388 9.223c6.766 4.465 13.209 6.583 19.567 3.572l.856 1.808c-7.339 3.474-14.592.864-21.524-3.71zm19.567 3.572c3.264-1.545 6.58-4.458 10.023-7.63 3.388-3.12 6.896-6.489 10.42-8.697l1.062 1.695c-3.326 2.084-6.666 5.286-10.127 8.473-3.405 3.137-6.937 6.27-10.522 7.967zm20.443-16.327c3.556-2.229 7.218-3.338 10.945-2.807 3.726.532 7.349 2.68 10.877 6.629l-1.492 1.333c-3.32-3.717-6.545-5.536-9.668-5.982-3.121-.445-6.308.459-9.6 2.522zm21.822 3.822c3.484 3.901 6.982 9.698 10.355 14.693 1.707 2.526 3.389 4.861 5.054 6.729 1.679 1.881 3.266 3.201 4.763 3.802l-.745 1.856c-1.928-.774-3.764-2.37-5.51-4.327-1.759-1.971-3.501-4.398-5.219-6.941-3.474-5.143-6.825-10.713-10.19-14.479zm20.172 25.224c2.836 1.139 5.838-.174 9.213-3.371 3.339-3.163 6.704-7.857 10.147-12.667l1.626 1.164c-3.406 4.758-6.889 9.631-10.398 12.955-3.474 3.291-7.321 5.386-11.333 3.775zM451 125.608V0h2v125.608zM452 1h-20.545v-2H452zm-20.545 0h-20.546v-2h20.546zm-20.546 0h-20.545v-2h20.545zm-20.545 0h-20.546v-2h20.546zm-20.546 0h-20.545v-2h20.545zm-20.545 0h-20.546v-2h20.546zm-20.546 0h-20.545v-2h20.545zm-20.545 0h-20.546v-2h20.546zm-20.546 0h-20.545v-2h20.545zm-20.545 0h-20.546v-2h20.546zm-20.546 0H226v-2h20.545zM226 1h-20.545v-2H226zm-20.545 0h-20.546v-2h20.546zm-20.546 0h-20.545v-2h20.545zm-20.545 0h-20.546v-2h20.546zm-20.546 0h-20.545v-2h20.545zm-20.545 0h-20.546v-2h20.546zm-20.546 0H82.182v-2h20.545zM82.182 1H61.637v-2H82.18zM61.636 1H41.091v-2h20.545zM41.091 1H20.546v-2H41.09zM20.546 1H0v-2h20.545zM1 0v132.89h-2V0z" mask="url(#a)"/><mask id="b" fill="#fff"><path d="M423 132.89c6.849-7.67 13.697-15.339 20.545-12.743s13.697 15.46 20.546 18.204 13.697-4.632 20.545-12.743 13.697-16.956 20.546-12.742 13.697 21.488 20.545 29.126 13.697 5.642 20.546 0c6.848-5.642 13.696-14.93 20.545-16.384s13.697 4.925 20.546 3.641c6.848-1.284 13.696-10.231 20.545-9.102s13.697 12.334 20.546 9.102c6.848-3.231 13.696-20.9 20.545-21.845s13.697 14.834 20.545 21.845 13.697 5.254 20.546 0 13.697-14.004 20.545-12.742 13.697 12.534 20.546 12.742 13.697-10.651 20.545-12.742 13.697 4.582 20.546 9.101c6.848 4.52 13.696 6.884 20.545 3.641 6.849-3.242 13.697-12.092 20.546-16.383 6.848-4.292 13.696-4.027 20.545 3.641 6.849 7.666 13.697 22.734 20.546 25.485 6.848 2.75 13.696-6.816 20.545-16.384V0H423z"/></mask><path fill="#20120F" d="M423 132.89c6.849-7.67 13.697-15.339 20.545-12.743s13.697 15.46 20.546 18.204 13.697-4.632 20.545-12.743 13.697-16.956 20.546-12.742 13.697 21.488 20.545 29.126 13.697 5.642 20.546 0c6.848-5.642 13.696-14.93 20.545-16.384s13.697 4.925 20.546 3.641c6.848-1.284 13.696-10.231 20.545-9.102s13.697 12.334 20.546 9.102c6.848-3.231 13.696-20.9 20.545-21.845s13.697 14.834 20.545 21.845 13.697 5.254 20.546 0 13.697-14.004 20.545-12.742 13.697 12.534 20.546 12.742 13.697-10.651 20.545-12.742 13.697 4.582 20.546 9.101c6.848 4.52 13.696 6.884 20.545 3.641 6.849-3.242 13.697-12.092 20.546-16.383 6.848-4.292 13.696-4.027 20.545 3.641 6.849 7.666 13.697 22.734 20.546 25.485 6.848 2.75 13.696-6.816 20.545-16.384V0H423z"/><path fill="#20120F" d="m423 132.89.746.666-1.746 1.956v-2.622zm20.545-12.743.355-.935zm20.546 18.204-.372.929zm61.636 3.641.745-.668zm20.546 0-.636-.772zm164.363-25.485-.181.983zm41.091 0 .292.956zm82.182 0-.746.666zM875 125.608h1v.321l-.187.261zM875 0v-1h1v1zM423 0h-1v-1h1zm-.746 132.224c3.404-3.812 6.899-7.733 10.421-10.357 3.52-2.623 7.318-4.136 11.225-2.655l-.709 1.87c-2.942-1.115-5.992-.092-9.321 2.389-3.326 2.478-6.679 6.227-10.124 10.085zm21.646-13.012c1.897.719 3.724 2.117 5.468 3.761 1.752 1.652 3.495 3.625 5.2 5.56 1.72 1.95 3.402 3.861 5.077 5.458 1.681 1.603 3.283 2.817 4.818 3.432l-.744 1.857c-1.89-.758-3.712-2.181-5.455-3.842-1.749-1.668-3.491-3.65-5.196-5.583-1.718-1.949-3.4-3.85-5.072-5.426-1.68-1.584-3.278-2.768-4.805-3.347zm20.563 18.211c2.951 1.182 5.998.253 9.309-2.179 3.314-2.434 6.667-6.215 10.1-10.281l1.528 1.29c-3.415 4.045-6.911 8.008-10.444 10.603-3.538 2.599-7.339 3.985-11.237 2.424zm19.409-12.46c3.387-4.011 6.893-8.355 10.418-11.133 1.773-1.397 3.625-2.462 5.548-2.87 1.959-.416 3.934-.136 5.868 1.054l-1.048 1.703c-1.49-.917-2.94-1.112-4.405-.801-1.502.319-3.073 1.183-4.725 2.484-3.323 2.619-6.665 6.753-10.128 10.853zm21.834-12.949c1.881 1.157 3.686 3.156 5.418 5.514 1.744 2.375 3.478 5.205 5.192 8.108 3.463 5.866 6.817 11.965 10.156 15.688l-1.489 1.335c-3.511-3.915-7.004-10.272-10.39-16.006-1.71-2.897-3.401-5.653-5.081-7.941-1.692-2.304-3.311-4.045-4.854-4.995zm20.766 29.31c3.273 3.651 6.414 4.872 9.455 4.651 3.115-.227 6.341-1.98 9.71-4.755l1.272 1.544c-3.481 2.867-7.103 4.933-10.836 5.206-3.808.277-7.515-1.323-11.09-5.311zm19.165-.104c3.401-2.802 6.711-6.427 10.225-9.72 3.416-3.202 7.022-6.079 10.748-6.87l.416 1.956c-3.122.663-6.365 3.157-9.797 6.373-3.335 3.126-6.873 6.965-10.32 9.805zm20.973-16.59c3.755-.797 7.458.564 10.824 1.796 3.491 1.276 6.641 2.422 9.745 1.84l.369 1.966c-3.745.702-7.443-.7-10.801-1.928-3.481-1.274-6.626-2.375-9.721-1.718zm20.569 3.636c1.546-.29 3.142-1.023 4.816-2.003 1.682-.983 3.344-2.153 5.091-3.305 1.719-1.132 3.5-2.232 5.308-2.971 1.816-.743 3.722-1.149 5.678-.827l-.326 1.974c-1.468-.243-2.986.046-4.595.704-1.616.661-3.259 1.666-4.964 2.79-1.677 1.105-3.439 2.342-5.182 3.362-1.75 1.024-3.579 1.89-5.457 2.242zm20.893-9.106c1.93.318 3.788 1.33 5.534 2.512 1.73 1.17 3.52 2.634 5.171 3.858 1.702 1.262 3.314 2.317 4.879 2.878 1.53.548 2.958.604 4.372-.063l.853 1.809c-2.01.948-4.007.815-5.9.136-1.86-.666-3.672-1.877-5.395-3.153-1.773-1.315-3.407-2.662-5.101-3.809-1.678-1.136-3.244-1.948-4.739-2.194zm19.956 9.185c1.493-.705 3.085-2.257 4.784-4.367 1.683-2.09 3.368-4.589 5.093-7.079 1.709-2.464 3.459-4.919 5.227-6.819 1.739-1.868 3.655-3.38 5.731-3.666l.274 1.981c-1.348.186-2.856 1.237-4.541 3.048-1.657 1.78-3.331 4.121-5.047 6.596-1.698 2.45-3.438 5.032-5.179 7.194-1.725 2.142-3.557 4.009-5.489 4.921zm20.835-21.931c2.133-.295 4.128.732 5.921 2.257 1.807 1.537 3.576 3.72 5.297 6.084 1.716 2.357 3.461 5.004 5.148 7.418 1.708 2.445 3.381 4.688 5.032 6.377l-1.431 1.398c-1.774-1.816-3.525-4.175-5.241-6.63-1.737-2.487-3.417-5.04-5.125-7.386-1.703-2.339-3.358-4.362-4.975-5.737-1.631-1.387-3.061-1.978-4.352-1.8zm21.398 22.136c3.264 3.342 6.417 4.498 9.493 4.3 3.135-.201 6.368-1.817 9.728-4.394l1.218 1.587c-3.489 2.676-7.104 4.565-10.818 4.803-3.772.242-7.468-1.229-11.052-4.898zm19.221-.094c1.677-1.286 3.36-2.792 5.077-4.335 1.705-1.533 3.444-3.105 5.187-4.473 3.436-2.696 7.178-4.842 11.072-4.125l-.363 1.967c-2.955-.544-6.061 1.053-9.474 3.731-1.68 1.319-3.366 2.841-5.085 4.387-1.708 1.536-3.448 3.094-5.196 4.435zm21.335-12.933c1.929.355 3.786 1.398 5.542 2.667 1.759 1.272 3.514 2.845 5.209 4.331 1.718 1.505 3.378 2.926 5.02 3.987 1.646 1.063 3.175 1.698 4.624 1.742l-.061 1.999c-1.975-.06-3.87-.912-5.648-2.061-1.782-1.151-3.546-2.667-5.253-4.163-1.729-1.516-3.399-3.011-5.063-4.214-1.668-1.206-3.236-2.046-4.732-2.321zm20.395 12.727c1.443.043 2.962-.495 4.594-1.469 1.631-.973 3.286-2.325 4.996-3.799 1.686-1.452 3.438-3.035 5.181-4.367 1.744-1.333 3.569-2.49 5.452-3.065l.584 1.913c-1.541.471-3.14 1.456-4.821 2.741s-3.353 2.796-5.091 4.294c-1.714 1.476-3.483 2.931-5.276 4.001-1.792 1.069-3.698 1.81-5.68 1.75zm20.223-12.7c3.83-1.17 7.568.148 11.064 2.161 1.759 1.013 3.506 2.231 5.22 3.462 1.728 1.24 3.414 2.485 5.104 3.6l-1.101 1.67c-1.734-1.144-3.472-2.428-5.169-3.645-1.709-1.227-3.387-2.394-5.052-3.353-3.352-1.931-6.463-2.904-9.482-1.982zm21.388 9.223c6.766 4.465 13.209 6.583 19.567 3.572l.856 1.808c-7.339 3.474-14.592.864-21.524-3.71zm19.567 3.572c3.264-1.545 6.58-4.458 10.023-7.63 3.388-3.12 6.896-6.489 10.42-8.697l1.062 1.695c-3.326 2.084-6.666 5.286-10.127 8.473-3.405 3.137-6.937 6.27-10.522 7.967zm20.443-16.327c3.556-2.229 7.218-3.338 10.945-2.807 3.726.532 7.349 2.68 10.877 6.629l-1.492 1.333c-3.32-3.717-6.545-5.536-9.668-5.982-3.121-.445-6.308.459-9.6 2.522zm21.822 3.822c3.484 3.901 6.982 9.698 10.355 14.693 1.707 2.526 3.389 4.861 5.054 6.729 1.679 1.881 3.266 3.201 4.763 3.802l-.745 1.856c-1.928-.774-3.764-2.37-5.51-4.327-1.759-1.971-3.501-4.398-5.219-6.941-3.474-5.143-6.825-10.713-10.19-14.479zm20.172 25.224c2.836 1.139 5.838-.174 9.213-3.371 3.339-3.163 6.704-7.857 10.147-12.667l1.626 1.164c-3.406 4.758-6.889 9.631-10.398 12.955-3.474 3.291-7.321 5.386-11.333 3.775zM874 125.608V0h2v125.608zM875 1h-20.545v-2H875zm-20.545 0h-20.546v-2h20.546zm-20.546 0h-20.545v-2h20.545zm-20.545 0h-20.546v-2h20.546zm-20.546 0h-20.545v-2h20.545zm-20.545 0h-20.546v-2h20.546zm-20.546 0h-20.545v-2h20.545zm-20.545 0h-20.546v-2h20.546zm-20.546 0h-20.545v-2h20.545zm-20.545 0h-20.546v-2h20.546zm-20.546 0H649v-2h20.545zM649 1h-20.545v-2H649zm-20.545 0h-20.546v-2h20.546zm-20.546 0h-20.545v-2h20.545zm-20.545 0h-20.546v-2h20.546zm-20.546 0h-20.545v-2h20.545zm-20.545 0h-20.546v-2h20.546zm-20.546 0h-20.545v-2h20.545zm-20.545 0h-20.546v-2h20.546zm-20.546 0h-20.545v-2h20.545zm-20.545 0h-20.546v-2h20.546zm-20.546 0H423v-2h20.545zM424 0v132.89h-2V0z" mask="url(#b)"/></svg>