<svg xmlns="http://www.w3.org/2000/svg" width="25" height="25" fill="none"><path fill="#fff" d="M25 12.423a12.63 12.63 0 0 0-2.045-6.74 12.5 12.5 0 0 0-5.326-4.576 12.43 12.43 0 0 0-6.937-.975 12.47 12.47 0 0 0-6.369 2.932A12.6 12.6 0 0 0 .521 8.983a12.65 12.65 0 0 0-.04 7.046 12.6 12.6 0 0 0 3.731 5.964A12.47 12.47 0 0 0 10.546 25v-8.914H7.421v-3.663h3.125V9.64a4.47 4.47 0 0 1 1.197-3.57 4.398 4.398 0 0 1 3.49-1.366q1.409.02 2.798.25V8.1h-1.563a1.8 1.8 0 0 0-1.488.5 1.82 1.82 0 0 0-.543 1.481v2.374h3.469l-.563 3.663h-2.89v8.804c2.953-.47 5.64-1.989 7.576-4.282a12.62 12.62 0 0 0 2.97-8.216"/></svg>