<svg xmlns="http://www.w3.org/2000/svg" width="1440" height="201" fill="none"><g filter="url(#a)"><mask id="b" fill="#fff"><path d="M0 173.984c21.819-10.042 43.636-20.083 65.454-16.684 21.82 3.4 43.636 20.241 65.455 23.834s43.636-6.065 65.455-16.684 43.635-22.2 65.454-16.683 43.636 28.133 65.455 38.133 43.635 7.387 65.454 0 43.636-19.546 65.455-21.45 43.635 6.448 65.454 4.767 43.636-13.395 65.455-11.917 43.635 16.148 65.454 11.917c21.82-4.231 43.636-27.363 65.455-28.6s43.635 19.421 65.455 28.6c21.819 9.179 43.635 6.878 65.454 0s43.636-18.335 65.455-16.683c21.819 1.651 43.635 16.411 65.454 16.683 21.822.272 43.632-13.945 65.452-16.683 21.82-2.739 43.64 5.999 65.46 11.916s43.63 9.012 65.45 4.767 43.64-15.831 65.46-21.45 43.63-5.271 65.45 4.767 43.64 29.765 65.46 33.366c21.81 3.601 43.63-8.924 65.45-21.45V0H0z"/></mask><path fill="#20120F" d="M0 173.984c21.819-10.042 43.636-20.083 65.454-16.684 21.82 3.4 43.636 20.241 65.455 23.834s43.636-6.065 65.455-16.684 43.635-22.2 65.454-16.683 43.636 28.133 65.455 38.133 43.635 7.387 65.454 0 43.636-19.546 65.455-21.45 43.635 6.448 65.454 4.767 43.636-13.395 65.455-11.917 43.635 16.148 65.454 11.917c21.82-4.231 43.636-27.363 65.455-28.6s43.635 19.421 65.455 28.6c21.819 9.179 43.635 6.878 65.454 0s43.636-18.335 65.455-16.683c21.819 1.651 43.635 16.411 65.454 16.683 21.822.272 43.632-13.945 65.452-16.683 21.82-2.739 43.64 5.999 65.46 11.916s43.63 9.012 65.45 4.767 43.64-15.831 65.46-21.45 43.63-5.271 65.45 4.767 43.64 29.765 65.46 33.366c21.81 3.601 43.63-8.924 65.45-21.45V0H0z"/><path fill="#20120F" d="m0 173.984.418.909-1.418.652v-1.561zM65.454 157.3l.155-.988zm65.455 23.834-.162.987zm196.364 4.766.416-.909zm65.454 0-.32-.947zm523.637-33.366-.076.997zm130.906 0 .13.992zm261.82 0-.42.909zM1440 164.45h1v.579l-.5.288zM1440 0v-1h1v1zM0 0h-1v-1h1zm-.418 173.076c21.745-10.008 43.853-20.218 66.027-16.764l-.308 1.976c-21.465-3.344-42.99 6.528-64.883 16.605zm66.027-16.764c11.075 1.726 22.115 6.855 32.995 11.926 10.941 5.099 21.72 10.139 32.468 11.909l-.325 1.974c-11.071-1.823-22.11-7-32.988-12.07-10.938-5.098-21.715-10.089-32.458-11.763zm65.463 23.835c21.458 3.533 42.992-5.956 64.854-16.596l.875 1.798c-21.776 10.598-43.875 20.423-66.054 16.772zm64.854-16.596c10.879-5.295 21.865-10.885 32.857-14.445 11.009-3.565 22.122-5.13 33.28-2.308l-.49 1.939c-10.661-2.696-21.366-1.228-32.174 2.272-10.825 3.506-21.657 9.016-32.598 14.34zm66.137-16.753c11.11 2.809 22.158 9.949 33.054 17.534 10.959 7.629 21.768 15.707 32.572 20.659l-.833 1.818c-11.014-5.048-22.024-13.277-32.882-20.836-10.922-7.603-21.692-14.529-32.401-17.236zm65.626 38.193c21.492 9.851 43.018 7.308 64.718-.038l.641 1.894c-21.939 7.428-44.046 10.113-66.192-.038zm64.718-.038c10.892-3.687 21.702-8.536 32.688-12.767 10.931-4.21 21.946-7.768 33-8.732l.174 1.992c-10.766.94-21.568 4.414-32.455 8.607-10.832 4.171-21.84 9.096-32.766 12.794zm65.688-21.499c11.047-.964 22.072.67 32.963 2.307 10.931 1.643 21.725 3.289 32.502 2.459l.153 1.994c-11.043.851-22.066-.839-32.953-2.475-10.927-1.643-21.719-3.233-32.491-2.293zm65.465 4.766c10.79-.831 21.58-4.143 32.542-7.111 10.909-2.954 21.963-5.558 33.057-4.807l-.136 1.996c-10.725-.727-21.489 1.787-32.398 4.741-10.856 2.94-21.883 6.325-32.912 7.175zm65.599-11.918c11.058.749 22.129 4.844 32.951 8.141 10.899 3.32 21.599 5.857 32.245 3.792l.381 1.964c-11.173 2.166-22.291-.517-33.209-3.843-10.996-3.35-21.743-7.329-32.504-8.058zm65.196 11.933c10.698-2.074 21.432-8.795 32.408-15.301 10.87-6.444 21.987-12.681 33.18-13.315l.114 1.996c-10.626.603-21.327 6.55-32.274 13.04-10.843 6.427-21.926 13.387-33.047 15.544zm65.588-28.616c11.223-.637 22.354 4.357 33.276 10.521 11.02 6.221 21.782 13.594 32.623 18.155l-.775 1.844c-10.978-4.618-22.034-12.163-32.831-18.257-10.896-6.15-21.583-10.867-32.179-10.267zm65.899 28.676c21.515 9.051 43.065 6.809 64.766-.032l.602 1.908c-21.937 6.915-44.02 9.275-66.143-.032zm64.766-.032c5.429-1.711 10.861-3.708 16.318-5.725 5.45-2.013 10.925-4.046 16.403-5.813 10.953-3.531 22.008-6.029 33.11-5.188l-.151 1.994c-10.717-.811-21.48 1.594-32.345 5.098-5.43 1.751-10.864 3.768-16.323 5.785-5.452 2.015-10.929 4.029-16.41 5.757zm65.831-16.726c11.074.838 22.124 5 32.991 8.915 10.93 3.938 21.685 7.632 32.401 7.765l-.025 2c-11.104-.138-22.167-3.961-33.054-7.883-10.951-3.946-21.719-7.99-32.464-8.803zm65.392 16.68c10.71.134 21.469-3.29 32.379-7.155 10.86-3.844 21.89-8.134 32.94-9.52l.25 1.984c-10.78 1.352-21.56 5.54-32.52 9.421-10.9 3.86-21.966 7.409-33.074 7.27zm65.319-16.675c11.08-1.391 22.12.137 33.08 2.731 10.91 2.582 21.95 6.28 32.76 9.212l-.52 1.93c-11.01-2.984-21.79-6.614-32.7-9.196-10.86-2.569-21.63-4.041-32.37-2.693zm65.84 11.943c21.75 5.898 43.4 8.954 65 4.751l.38 1.963c-22.03 4.286-44.02 1.152-65.9-4.784zm65 4.751c10.82-2.105 21.65-6.033 32.57-10.164 10.88-4.12 21.85-8.447 32.83-11.273l.5 1.936c-10.85 2.793-21.69 7.069-32.63 11.208-10.9 4.128-21.88 8.115-32.89 10.256zm65.4-21.437c21.99-5.665 44.05-5.325 66.12 4.827l-.84 1.817c-21.57-9.925-43.14-10.281-64.78-4.708zm66.12 4.827c10.98 5.05 21.98 12.553 32.83 19.15 10.9 6.635 21.67 12.371 32.37 14.137l-.33 1.974c-11.12-1.835-22.17-7.764-33.08-14.402-10.98-6.677-21.79-14.056-32.63-19.042zm65.2 33.287c10.67 1.761 21.38-.411 32.2-4.622 10.83-4.215 21.67-10.437 32.59-16.708l1 1.734c-10.9 6.255-21.87 12.558-32.86 16.838-11.01 4.282-22.11 6.572-33.26 4.732zM1439 164.45V0h2v164.45zM1440 1h-65.45v-2H1440zm-65.45 0h-65.46v-2h65.46zm-65.46 0h-65.45v-2h65.45zm-65.45 0h-65.46v-2h65.46zm-65.46 0h-65.45v-2h65.45zm-65.45 0h-65.46v-2h65.46zm-65.46 0h-65.452v-2h65.452zm-65.452 0h-65.454v-2h65.454zm-65.454 0h-65.455v-2h65.455zm-65.455 0h-65.454v-2h65.454zm-65.454 0H720v-2h65.455zM720 1h-65.455v-2H720zm-65.455 0h-65.454v-2h65.454zm-65.454 0h-65.455v-2h65.455zm-65.455 0h-65.454v-2h65.454zm-65.454 0h-65.455v-2h65.455zm-65.455 0h-65.454v-2h65.454zm-65.454 0h-65.455v-2h65.455zm-65.455 0h-65.454v-2h65.454zm-65.454 0h-65.455v-2h65.455zm-65.455 0H65.455v-2h65.454zM65.455 1H0v-2h65.454zM1 0v173.984h-2V0z" mask="url(#b)"/></g><defs><filter id="a" width="1448" height="200.457" x="-4" y="0" color-interpolation-filters="sRGB" filterUnits="userSpaceOnUse"><feFlood flood-opacity="0" result="BackgroundImageFix"/><feColorMatrix in="SourceAlpha" result="hardAlpha" values="0 0 0 0 0 0 0 0 0 0 0 0 0 0 0 0 0 0 127 0"/><feOffset dy="4"/><feGaussianBlur stdDeviation="2"/><feComposite in2="hardAlpha" operator="out"/><feColorMatrix values="0 0 0 0 0 0 0 0 0 0 0 0 0 0 0 0 0 0 0.25 0"/><feBlend in2="BackgroundImageFix" result="effect1_dropShadow_25_8"/><feBlend in="SourceGraphic" in2="effect1_dropShadow_25_8" result="shape"/></filter></defs></svg>